/* XPM */
static char * font_8x8_xpm[] = {
"128 64 2 1",
" 	c #FFFFFFFFFFFF",
".	c #000000000000",
"                                                         ......                                                                 ",
"                                                 ......  ......                                                  ......  ...... ",
"                                         ......  ......  ......                                                                 ",
"                                 ......  ......  ......  ......                                  ......  ......  ......  ...... ",
"                         ......  ......  ......  ......  ......                                                                 ",
"                 ......  ......  ......  ......  ......  ......                  ......  ......  ......  ......  ......  ...... ",
"         ......  ......  ......  ......  ......  ......  ......                                                                 ",
" ......  ......  ......  ......  ......  ......  ......  ......  ......  ......  ......  ......  ......  ......  ......  ...... ",
"                                                                                                                                ",
".       ..      ...     ....    .....   ......  ....... .........       .       . .     . .     . . .   . . .   . . . . . . . . ",
".       ..      ...     ....    .....   ......  ....... .........       .       . .     . .     . . .   . . .   . . . . . . . . ",
".       ..      ...     ....    .....   ......  ....... .........       .       . .     . .     . . .   . . .   . . . . . . . . ",
".       ..      ...     ....    .....   ......  ....... .........       .       . .     . .     . . .   . . .   . . . . . . . . ",
".       ..      ...     ....    .....   ......  ....... .........       .       . .     . .     . . .   . . .   . . . . . . . . ",
".       ..      ...     ....    .....   ......  ....... .........       .       . .     . .     . . .   . . .   . . . . . . . . ",
"                                                                                                                                ",
"           ..    ..  ..  ..  ..    ..    ..   .   ....       ..     ..    ..                                                    ",
"           ..    ..  ..  ..  ..   .....  ..  ..  ..  ..     ..     ..      ..    ..  ..    ..                                 ..",
"           ..    ..  .. ........ ..         ..    ....     ..     ..        ..    ....     ..                                .. ",
"           ..            ..  ..   .....    ..     ...             ..        ..  ........ ......          ......             ..  ",
"                        ........     ..   ..     ..  ...          ..        ..    ....     ..                              ..   ",
"                         ..  ..  .....   ..  ..  ..  ..            ..      ..    ..  ..    ..      ..              ..     ..    ",
"           ..            ..  ..    ..    .   ..   ......            ..    ..                       ..              ..    ..     ",
"                                                                                                  ..                            ",
"  ....     ..     ....    ....       ..  ......   ....   ......   ....    ....                      ...          ...      ....  ",
" ..  ..    ..    ..  ..  ..  ..     ...  ..      ..  ..  ..  ..  ..  ..  ..  ..                    ..              ..    ..  .. ",
" .. ...   ...        ..      ..    ....  .....   ..         ..   ..  ..  ..  ..    ..      ..     ..     ......     ..       .. ",
" ... ..    ..       ..     ...   ..  ..      ..  .....     ..     ....    .....                  ..                  ..     ..  ",
" ..  ..    ..     ..         ..  .......     ..  ..  ..    ..    ..  ..      ..            ..     ..     ......     ..     ..   ",
" ..  ..    ..    ..      ..  ..      ..  ..  ..  ..  ..    ..    ..  ..  ..  ..    ..      ..      ..              ..           ",
"  ....   ......  ......   ....       ..   ....    ....     ..     ....    ....            ..        ...          ...       ..   ",
"                                                                                                                                ",
"  ....     ..    .....    ....   ....    ......  ......   ....   ..  ..   ....     ....  ..  ..  ..      ..   .. ..  ..   ....  ",
" ..  ..   ....   ..  ..  ..  ..  .. ..   ..      ..      ..  ..  ..  ..    ..       ..   .. ..   ..      ... ... ... ..  ..  .. ",
" .. ...  ..  ..  ..  ..  ..      ..  ..  ..      ..      ..      ..  ..    ..       ..   ....    ..      ....... ......  ..  .. ",
" .. ...  ......  .....   ..      ..  ..  ....    ....    .. ...  ......    ..       ..   ...     ..      .. . .. ......  ..  .. ",
" ..      ..  ..  ..  ..  ..      ..  ..  ..      ..      ..  ..  ..  ..    ..       ..   ....    ..      ..   .. .. ...  ..  .. ",
" ..   .  ..  ..  ..  ..  ..  ..  .. ..   ..      ..      ..  ..  ..  ..    ..    .. ..   .. ..   ..      ..   .. ..  ..  ..  .. ",
"  ....   ..  ..  .....    ....   ....    ......  ..       ....   ..  ..   ....    ...    ..  ..  ......  ..   .. ..  ..   ....  ",
"                                                                                                                                ",
" .....    ....   .....    ....   ......  ..  ..  ..  ..  ..   .. ..  ..  ..  ..  ......   ....   .         ....    ..           ",
" ..  ..  ..  ..  ..  ..  ..  ..    ..    ..  ..  ..  ..  ..   .. ..  ..  ..  ..      ..   ..     ..          ..   ....          ",
" ..  ..  ..  ..  ..  ..  ..        ..    ..  ..  ..  ..  ..   ..  ....   ..  ..     ..    ..      ..         ..  ..  ..         ",
" .....   ..  ..  .....    ....     ..    ..  ..  ..  ..  .. . ..   ..     ....     ..     ..       ..        ..  ..  ..         ",
" ..      ..  ..  ....        ..    ..    ..  ..  ..  ..  .......  ....     ..     ..      ..        ..       ..                 ",
" ..       ....   .. ..   ..  ..    ..    ..  ..   ....   ... ... ..  ..    ..    ..       ..         ..      ..                 ",
" ..         ...  ..  ..   ....     ..     ....     ..    ..   .. ..  ..    ..    ......   ....        .    ....          ...... ",
"                                                                                                                                ",
"                 ..                                                                                                             ",
"  ..             ..                  ..             ...          ..        ..        ..  ..       ...                           ",
"   ..     ....   ..       ....       ..   ....     ..     .....  ..                      ..        ..    ..  ..  .....    ....  ",
"    ..       ..  .....   ..       .....  ..  ..   .....  ..  ..  .....    ...        ..  .. ..     ..    ....... ..  ..  ..  .. ",
"          .....  ..  ..  ..      ..  ..  ......    ..    ..  ..  ..  ..    ..        ..  ....      ..    ....... ..  ..  ..  .. ",
"         ..  ..  ..  ..  ..      ..  ..  ..        ..     .....  ..  ..    ..        ..  .. ..     ..    .. . .. ..  ..  ..  .. ",
"          .....  .....    ....    .....   ....     ..        ..  ..  ..   ....       ..  ..  ..   ....   ..   .. ..  ..   ....  ",
"                                                         .....                    ....                                          ",
"                                                                                           ..      ..      ..     ... ..        ",
"                                   ..                                                     .        ..        .   .. ...         ",
" .....    .....  .....    .....  ......  ..  ..  ..  ..  ..   .. ..  ..  ..  ..  ......   .        ..        .                  ",
" ..  ..  ..  ..  ..  ..  ..        ..    ..  ..  ..  ..  .. . ..  ....   ..  ..     ..     .       ..       .                   ",
" ..  ..  ..  ..  ..       ....     ..    ..  ..  ..  ..  .......   ..    ..  ..    ..     .        ..        .                  ",
" .....    .....  ..          ..    ..    ..  ..   ....    .....   ....    .....   ..      .        ..        .                  ",
" ..          ..  ..      .....      ...   .....    ..     .. ..  ..  ..     ..   ......    ..      ..      ..                   ",
" ..          ..                                                          ....                                                   "};
