/* XPM */
static char * mbhp_tv_xpm[] = {
"128 64 2 1",
" 	c #FFFFFFFFFFFF",
".	c #000000000000",
"                                                                                                                                ",
"                                                                                                                                ",
"                                                                                                                                ",
"                                                                                                                                ",
"                                                                                                                                ",
"                                                                                                                                ",
"                                                                                                                                ",
"                                                                                                                                ",
"                                                                                                                                ",
"                                                                                                                                ",
"                                                                                                                                ",
"          ...             ...    ...........       ...         ...    ...........                                               ",
"          ....           ....    .............     ...         ...    .............                                             ",
"          ....           ....    ...      ....     ...         ...    ...       ...                                             ",
"          .....         .....    ...        ...    ...         ...    ...        ...                                            ",
"          .....         .....    ...        ...    ...         ...    ...        ...                                            ",
"          ......       ......    ...        ...    ...         ...    ...        ...          ...........  .....    .....       ",
"          ... ..       .. ...    ...        ...    ...         ...    ...        ...          .    .    .    .        .         ",
"          ... ...     ... ...    ...       ...     ...         ...    ...       ...           .    .    .    .       .          ",
"          ...  ..     ..  ...    ............      ...............    .............          .    .    .     .       .          ",
"          ...  ...   ...  ...    .............     ...............    ............           .    .    .      .     .           ",
"          ...  ...   ...  ...    ...        ...    ...         ...    ...                         .           .     .           ",
"          ...   ..   ..   ...    ...         ...   ...         ...    ...                         .           .    .            ",
"          ...   ... ...   ...    ...         ...   ...         ...    ...                        .            .    .            ",
"          ...   ... ...   ...    ...         ...   ...         ...    ...                        .            .   .             ",
"          ...    .....    ...    ...         ...   ...         ...    ...                        .             .  .             ",
"          ...    .....    ...    ...        ....   ...         ...    ...                       .              . .              ",
"          ...     ...     ...    ...      .....    ...         ...    ...                       .              . .              ",
"          ...     ...     ...    .............     ...         ...    ...                       .              ..               ",
"          ...     ...     ...    ...........       ...         ...    ...                    .......           ..               ",
"                                                                                                                                ",
"                                                                                                                                ",
"                                                                                                                                ",
"     .......................................................................................................................    ",
"                                                                                                                                ",
"                                                                                                                                ",
"  .......................................................................................................................       ",
"                                                                                                                                ",
"                                                                                                                                ",
"                                                                                                                                ",
"                                                                                                                                ",
"                                                                                                                                ",
"                                                                                                                                ",
"                                                                                                                                ",
"                                                                                                                                ",
"                                                                                                                                ",
"           .....                                         .      .                 .       .  .    ....     ....                 ",
"           .    .                                        .      .                 ..     ..  .   .    .   .    .                ",
"           .    .   ...  .   .   .  ...   . .  ...    .. .      . ..   .   .      ..     ..  .  .      .  .                     ",
"           .    .  .   . .   .   . .   .  ..  .   .  .  ..      ..  .  .   .      . .   . .  .  .      .   ..                   ",
"           .....   .   .  .  .  .  .   .  .   .   .  .   .      .   .  .   .      . .   . .  .  .      .     ..                 ",
"           .       .   .  .  .  .  .....  .   .....  .   .      .   .  .  .       .  . .  .  .  .      .       .                ",
"           .       .   .  . . . .  .      .   .      .   .      .   .   . .       .  . .  .  .  .      .  .    .                ",
"           .       .   .   .   .   .   .  .   .   .  .  ..      ..  .   . .       .   .   .  .   .    .   .    .                ",
"           .        ...    .   .    ...   .    ...    .. .      . ..     .        .   .   .  .    ....     ....                 ",
"                                                                         .                                                      ",
"                                                                        .                                                       ",
"                                                                       .                                                        ",
"                                                                                                                                ",
"                                                                                                                                ",
"                                                                                                                                ",
"                                                                                                                                ",
"                                                                                                                                ",
"                                                                                                                                "};
